<?xml version="1.0" encoding="iso-8859-1"?>
<!-- Uploaded to: SVG Repo, www.svgrepo.com, Generator: SVG Repo Mixer Tools -->
<svg fill="#000000" height="800px" width="800px" version="1.1" id="Layer_1" xmlns="http://www.w3.org/2000/svg" xmlns:xlink="http://www.w3.org/1999/xlink" 
	 viewBox="0 0 512 512" xml:space="preserve">
<g>
	<g>
		<path d="M430.593,129.259l12.186-12.186c6.381-6.38,6.381-16.726,0-23.109c-6.381-6.381-16.727-6.381-23.109,0l-12.186,12.186
			C370.73,74.22,323.832,53.686,272.34,50.074V32.681h4.46c9.024,0,16.34-7.316,16.34-16.34c0-9.024-7.316-16.34-16.34-16.34H235.2
			c-9.024,0-16.34,7.316-16.34,16.34c0,9.024,7.316,16.34,16.34,16.34h4.46v17.393c-51.492,3.612-98.39,24.147-135.144,56.078
			L92.33,93.966c-6.381-6.383-16.727-6.38-23.109,0c-6.38,6.381-6.38,16.727,0,23.109l12.186,12.186
			c-35.28,40.607-56.663,93.595-56.663,151.483C24.744,408.259,128.485,512,256,512s231.256-103.741,231.256-231.256
			C487.256,222.854,465.872,169.867,430.593,129.259z M256,479.319c-109.495,0-198.575-89.08-198.575-198.575
			S146.505,82.169,256,82.169s198.575,89.079,198.575,198.574S365.495,479.319,256,479.319z"/>
	</g>
</g>
<g>
	<g>
		<path d="M272.34,241.042v-77.133c0-9.024-7.316-16.34-16.34-16.34c-9.024,0-16.34,7.316-16.34,16.34v77.133
			c-15.595,6.442-26.6,21.808-26.6,39.702c0,23.677,19.263,42.942,42.94,42.942s42.94-19.264,42.94-42.942
			C298.94,262.85,287.936,247.483,272.34,241.042z M256,291.004c-5.657,0-10.26-4.604-10.26-10.261s4.603-10.26,10.26-10.26
			s10.26,4.603,10.26,10.26S261.657,291.004,256,291.004z"/>
	</g>
</g>
</svg>